	<svg viewBox="0 0 250 250">
		<g class="follow">
			<polygon class="a-follow-c2" stroke="#DD07F4" points="105 47 79 62 68.947 175.0025 94 160 95.80825 132.8575 120.882 118.03875 132 137 150 126"></polygon>
			<polygon class="a-follow-c1" stroke="#DD07F4" points="95.4795 115.125 99 77 114.93325 103.6275"></polygon>
			<polygon class="a-follow-b7" stroke="#DD07F4" points="194 152 175 162 132 136.998047 150 126"></polygon>
			<polygon class="a-follow-b6" stroke="#DD07F4" points="137.017578 185.025391 94 160 69 175.0025 111 200"></polygon>
			<polygon class="a-follow-b5" stroke="#DD07F4" points="105 47 150.353516 125.401367 194 152 150 74"></polygon>
			<polygon class="a-follow-b4" stroke="#DD07F4" points="95.4795 115.125 139 140 158 130 114.93325 103.6275"></polygon>
			<polygon class="a-follow-b3" stroke="#DD07F4" points="99 77 143 103 158 130 114.93325 103.6275"></polygon>
			<polygon class="a-follow-b2" stroke="#4407F4" points="105 47 79 62 123 89 150 74"></polygon>
			<polygon class="a-follow-b1" stroke="#4407F4" points="123 89 79 62 69 175.0025 111 200"></polygon>
			<polygon class="a-follow-a2" stroke="#4407F4" points="150 74 123 89 111 200 137 185 140 158 164 143 175 162 194 152"></polygon>
			<polygon class="a-follow-a1" stroke="#4407F4" points="143 103 158 130 139 140"></polygon>
		</g>
		<g class="start">
			<polygon class="a-start-c2" stroke="#8A9EA3" points="105 47 79 62 68.947 175.0025 94 160 95.80825 132.8575 120.882 118.03875 132 137 150 126"></polygon>
			<polygon class="a-start-c1" stroke="#8A9EA3" points="95.4795 115.125 99 77 114.93325 103.6275"></polygon>
			<polygon class="a-start-b7" stroke="#8A9EA3" points="194 152 175 162 132 136.998047 150 126"></polygon>
			<polygon class="a-start-b6" stroke="#8A9EA3" points="137.017578 185.025391 94 160 69 175.0025 111 200"></polygon>
			<polygon class="a-start-b5" stroke="#8A9EA3" points="105 47 150.353516 125.401367 194 152 150 74"></polygon>
			<polygon class="a-start-b4" stroke="#8A9EA3" points="95.4795 115.125 139 140 158 130 114.93325 103.6275"></polygon>
			<polygon class="a-start-b3" stroke="#8A9EA3" points="99 77 143 103 158 130 114.93325 103.6275"></polygon>
			<polygon class="a-start-b2" stroke="#F9C99B" points="105 47 79 62 123 89 150 74"></polygon>
			<polygon class="a-start-b1" stroke="#F9C99B" points="123 89 79 62 69 175.0025 111 200"></polygon>
			<polygon class="a-start-a2" stroke="#F9C99B" points="150 74 123 89 111 200 137 185 140 158 164 143 175 162 194 152"></polygon>
			<polygon class="a-start-a1" stroke="#F9C99B" points="143 103 158 130 139 140"></polygon>
		</g>
	</svg>
