	<svg class="a" viewBox="0 0 250 250">
		<defs>
			<style>
				.a {
	svg {
		animation: svg-fill 1000ms ease-in-out 1750ms both;
		.a-start-a1,
		.a-follow-a1 {
			stroke-dashoffset: 97.65;
			stroke-dasharray: 97.65;
			animation: a-a1 cubic-bezier(0, .47, .1, .99) forwards;
		}
		.a-start-a1 {
			animation-duration: 1800ms;
			animation-delay: 650ms;
		}
		.a-follow-a1 {
			animation-duration: 1500ms;
			animation-delay: 500ms;
		}
		.a-start-a2,
		.a-follow-a2 {
			stroke-dashoffset: 361;
			stroke-dasharray: 361;
			animation: a-a2 cubic-bezier(0, .47, .1, .99) forwards;
		}
		.a-start-a2 {
			animation-duration: 800ms;
			animation-delay: 650ms;
		}
		.a-follow-a2 {
			animation-duration: 500ms;
			animation-delay: 500ms;
		}
		.a-start-b1,
		.a-follow-b1 {
			stroke-dashoffset: 325.59;
			stroke-dasharray: 325.59;
			animation: a-b1 cubic-bezier(0, .47, .1, .99) forwards;
		}
		.a-start-b1 {
			animation-duration: 800ms;
			animation-delay: 900ms;
		}
		.a-follow-b1 {
			animation-duration: 500ms;
			animation-delay: 750ms;
		}
		.a-start-b2,
		.a-follow-b2,
		.a-start-b3,
		.a-follow-b3 {
			stroke-dashoffset: 165;
			stroke-dasharray: 165;
			animation: a-b2 cubic-bezier(0, .47, .1, .99) forwards;
		}
		.a-start-b4,
		.a-follow-b4 {
			stroke-dashoffset: 144.7;
			stroke-dasharray: 144.7;
			animation: a-b4 cubic-bezier(0, .47, .1, .99) forwards;
		}
		.a-start-b5,
		.a-follow-b5 {
			stroke-dashoffset: 283.72;
			stroke-dasharray: 283.72;
			animation: a-b5 cubic-bezier(0, .47, .1, .99) forwards;
		}
		.a-start-b6,
		.a-follow-b6 {
			stroke-dashoffset: 157.82;
			stroke-dasharray: 157.82;
			animation: a-b6 cubic-bezier(0, .47, .1, .99) forwards;
		}
		.a-start-b2 {
			animation-duration: 800ms;
			animation-delay: 900ms;
		}
		.a-follow-b2 {
			animation-duration: 500ms;
			animation-delay: 750ms;
		}
		.a-start-b3,
		.a-start-b4,
		.a-start-b5,
		.a-start-b6 {
			animation-duration: 800ms;
			animation-delay: 1050ms;
		}
		.a-follow-b3,
		.a-follow-b4,
		.a-follow-b5,
		.a-follow-b6 {
			animation-duration: 500ms;
			animation-delay: 900ms;
		}
		.a-start-b7,
		.a-follow-b7 {
			stroke-dashoffset: 143.42;
			stroke-dasharray: 143.42;
			animation: a-b7 ease-out forwards;
		}
		.a-start-b7 {
			animation-duration: 800ms;
			animation-delay: 1300ms;
		}
		.a-follow-b7 {
			animation-duration: 500ms;
			animation-delay: 1150ms;
		}
		.a-start-c1,
		.a-follow-c1 {
			stroke-dashoffset: 91.92;
			stroke-dasharray: 91.92;
			animation: a-c1 cubic-bezier(0, .47, .1, .99) forwards;
		}
		.a-start-c1 {
			animation-duration: 1800ms;
			animation-delay: 1500ms;
		}
		.a-follow-c1 {
			animation-duration: 1500ms;
			animation-delay: 1350ms;
		}
		.a-start-c2,
		.a-follow-c2 {
			stroke-dashoffset: 362.99;
			stroke-dasharray: 362.99;
			animation: a-c2 cubic-bezier(0, .47, .2, .99) forwards;
		}
		.a-start-c2 {
			animation-duration: 800ms;
			animation-delay: 1500ms;
		}
		.a-follow-c2 {
			animation-duration: 500ms;
			animation-delay: 1350ms;
		}
	}
}

// A Keyframes
@keyframes a-c2 {
	0% {
		opacity: 0;
		stroke-dashoffset: 362.99;
	}
	1% {
		opacity: 1;
	}
	100% {
		opacity: 1;
		stroke-dashoffset: 0;
	}
}

@keyframes a-c1 {
	0% {
		opacity: 0;
		stroke-dashoffset: 91.92;
	}
	1% {
		opacity: 1;
	}
	100% {
		opacity: 1;
		stroke-dashoffset: 0;
	}
}

@keyframes a-b7 {
	0% {
		opacity: 0;
		stroke-dashoffset: -143.42;
	}
	1% {
		opacity: 1;
	}
	100% {
		opacity: 1;
		stroke-dashoffset: 0;
	}
}

@keyframes a-b6 {
	0% {
		opacity: 0;
		stroke-dashoffset: 157.82;
	}
	1% {
		opacity: 1;
	}
	100% {
		opacity: 1;
		stroke-dashoffset: 0;
	}
}

@keyframes a-b5 {
	0% {
		opacity: 0;
		stroke-dashoffset: 283.72;
	}
	1% {
		opacity: 1;
	}
	100% {
		opacity: 1;
		stroke-dashoffset: 0;
	}
}

@keyframes a-b4 {
	0% {
		opacity: 0;
		stroke-dashoffset: 144.7;
	}
	1% {
		opacity: 1;
	}
	100% {
		opacity: 1;
		stroke-dashoffset: 0;
	}
}

@keyframes a-b2 {
	0% {
		opacity: 0;
		stroke-dashoffset: 165;
	}
	1% {
		opacity: 1;
	}
	100% {
		opacity: 1;
		stroke-dashoffset: 0;
	}
}

@keyframes a-b1 {
	0% {
		opacity: 0;
		stroke-dashoffset: -325.59;
	}
	1% {
		opacity: 1;
	}
	100% {
		opacity: 1;
		stroke-dashoffset: 0;
	}
}

@keyframes a-a2 {
	0% {
		opacity: 0;
		stroke-dashoffset: 361;
	}
	1% {
		opacity: 1;
	}
	100% {
		opacity: 1;
		stroke-dashoffset: 0;
	}
}

@keyframes a-a1 {
	0% {
		opacity: 0;
		stroke-dashoffset: 97.65;
	}
	1% {
		opacity: 1;
	}
	100% {
		opacity: 1;
		stroke-dashoffset: 0;
	}
}

			</style>
		</defs>
		<g class="follow">
			<polygon class="a-follow-c2" stroke="#DD07F4" points="105 47 79 62 68.947 175.0025 94 160 95.80825 132.8575 120.882 118.03875 132 137 150 126"></polygon>
			<polygon class="a-follow-c1" stroke="#DD07F4" points="95.4795 115.125 99 77 114.93325 103.6275"></polygon>
			<polygon class="a-follow-b7" stroke="#DD07F4" points="194 152 175 162 132 136.998047 150 126"></polygon>
			<polygon class="a-follow-b6" stroke="#DD07F4" points="137.017578 185.025391 94 160 69 175.0025 111 200"></polygon>
			<polygon class="a-follow-b5" stroke="#DD07F4" points="105 47 150.353516 125.401367 194 152 150 74"></polygon>
			<polygon class="a-follow-b4" stroke="#DD07F4" points="95.4795 115.125 139 140 158 130 114.93325 103.6275"></polygon>
			<polygon class="a-follow-b3" stroke="#DD07F4" points="99 77 143 103 158 130 114.93325 103.6275"></polygon>
			<polygon class="a-follow-b2" stroke="#4407F4" points="105 47 79 62 123 89 150 74"></polygon>
			<polygon class="a-follow-b1" stroke="#4407F4" points="123 89 79 62 69 175.0025 111 200"></polygon>
			<polygon class="a-follow-a2" stroke="#4407F4" points="150 74 123 89 111 200 137 185 140 158 164 143 175 162 194 152"></polygon>
			<polygon class="a-follow-a1" stroke="#4407F4" points="143 103 158 130 139 140"></polygon>
		</g>
		<g class="start">
			<polygon class="a-start-c2" stroke="#8A9EA3" points="105 47 79 62 68.947 175.0025 94 160 95.80825 132.8575 120.882 118.03875 132 137 150 126"></polygon>
			<polygon class="a-start-c1" stroke="#8A9EA3" points="95.4795 115.125 99 77 114.93325 103.6275"></polygon>
			<polygon class="a-start-b7" stroke="#8A9EA3" points="194 152 175 162 132 136.998047 150 126"></polygon>
			<polygon class="a-start-b6" stroke="#8A9EA3" points="137.017578 185.025391 94 160 69 175.0025 111 200"></polygon>
			<polygon class="a-start-b5" stroke="#8A9EA3" points="105 47 150.353516 125.401367 194 152 150 74"></polygon>
			<polygon class="a-start-b4" stroke="#8A9EA3" points="95.4795 115.125 139 140 158 130 114.93325 103.6275"></polygon>
			<polygon class="a-start-b3" stroke="#8A9EA3" points="99 77 143 103 158 130 114.93325 103.6275"></polygon>
			<polygon class="a-start-b2" stroke="#F9C99B" points="105 47 79 62 123 89 150 74"></polygon>
			<polygon class="a-start-b1" stroke="#F9C99B" points="123 89 79 62 69 175.0025 111 200"></polygon>
			<polygon class="a-start-a2" stroke="#F9C99B" points="150 74 123 89 111 200 137 185 140 158 164 143 175 162 194 152"></polygon>
			<polygon class="a-start-a1" stroke="#F9C99B" points="143 103 158 130 139 140"></polygon>
		</g>
	</svg>
