            <svg class="svg-machine" preserveAspectRatio="none" viewBox="0 0 172.562 284.959" enable-background="new 0 0 172.562 284.959">
                <g id="base">
                    <polyline fill="none" stroke="#000000" stroke-width="12" stroke-linecap="round" stroke-linejoin="round" points="31.58,278.213 
                        5.646,278.213 5.646,240.035 165.396,240.035 165.396,278.213 72.332,278.213  "/>
                    
                        <line fill="none" stroke="#000000" stroke-width="12" stroke-linecap="round" stroke-linejoin="round" x1="48.896" y1="278" x2="55.896" y2="278"/>
                </g>
                <g id="body-machine">
                    <path fill="#FFFFFF" d="M30.896,238.75c-3.313,0-6-2.687-6-6v-154c0-33.222,27.028-60.25,60.25-60.25s60.25,27.028,60.25,60.25v154
                        c0,3.313-2.687,6-6,6H30.896z"/>
                    <path d="M85.146,24.5c29.961,0,54.25,24.289,54.25,54.25v154h-108.5v-154C30.896,48.788,55.185,24.5,85.146,24.5 M85.146,12.5
                        c-36.53,0-66.25,29.72-66.25,66.25v154c0,6.627,5.373,12,12,12h108.5c6.627,0,12-5.373,12-12v-154
                        C151.396,42.219,121.677,12.5,85.146,12.5L85.146,12.5z"/>
                </g>
                <path id="alca-machine" d="M99.562,10v6c0,0-11.25-2-15-2c-3.5,0-14,2-14,2v-6H99.562 M99.562,0h-29c-5.523,0-10,4.477-10,10v6
                    c0,2.979,1.329,5.804,3.625,7.704C65.995,25.2,68.255,26,70.563,26c0.622,0,1.248-0.058,1.869-0.176
                    C77.486,24.862,83.156,24.01,84.565,24c1.713,0,8.233,0.954,13.247,1.846C98.395,25.949,98.98,26,99.562,26
                    c2.33,0,4.608-0.815,6.423-2.335c2.268-1.9,3.577-4.707,3.577-7.665v-6C109.562,4.477,105.085,0,99.562,0L99.562,0z"/>
                <g id="top-machine">
                    <g>
                        <path fill="#F52929" d="M28.896,106.896V80.271c0-31.02,25.146-56.167,56.166-56.167l0,0c31.021,0,56.168,25.146,56.168,56.167
                            v26.624H28.896z"/>
                    </g>
                    
                        <rect x="46.563" y="33.999" transform="matrix(0.8093 -0.5874 0.5874 0.8093 -17.8288 42.0796)" fill="#FFFFFF" width="18.667" height="29"/>
                    <path fill="#A4001F" d="M120.562,35.333c0,0-40.332,17-27.666,73.667l50.334,1.333L142.562,69l-7.332-20.333L120.562,35.333z"/>
                    <g>
                        <g>
                            <path d="M85.062,25.333c30.1,0,54.5,24.4,54.5,54.5v25.834h-109V79.833C30.562,49.733,54.963,25.333,85.062,25.333
                                 M85.062,17.333c-34.463,0-62.5,28.038-62.5,62.5v25.834v8h8h109h8v-8V79.833C147.562,45.371,119.525,17.333,85.062,17.333
                                L85.062,17.333z"/>
                        </g>
                    </g>
                </g>
                <g id="deco-blue">
                    <rect x="26.896" y="221.524" fill="#66CCFF" width="116.526" height="17.809"/>
                    <g>
                        <path d="M139.422,225.524v9.809H30.896v-9.809H139.422 M147.422,217.524h-8H30.896h-8v8v9.809v8h8h108.526h8v-8v-9.809V217.524
                            L147.422,217.524z"/>
                    </g>
                </g>
                
                <g id="head-machine">
                    <g>
                        <path fill="#FFFFFF" d="M129.308,83.719c0,7.271-2.324,16.378-7.902,23.886c-12.729,17.135-35.302,30.91-35.302,30.91
                            s-24.663-14.388-37.057-32.666c-4.511-6.652-6.147-15.762-6.147-22.13c0-23.861,19.343-43.204,43.204-43.204
                            S129.308,59.858,129.308,83.719z"/>
                    </g>
                    <path fill="#66CCFF" d="M91.062,39.166c0,0,7.769,4.807,14.5,13.25c6.137,7.698,11.309,18.519,11,29.5c-0.75,26.75-16,41-22.75,49
                        c0,0,28.75-19.5,32-30s7-28.25-0.25-40.75S91.062,39.166,91.062,39.166z"/>
                    <g>
                        <path d="M85.229,41.249c22.644,0,41,18.356,41,41c0,6.899-2.206,15.542-7.499,22.667c-12.079,16.261-33.501,29.333-33.501,29.333
                            s-23.404-13.654-35.166-31c-4.281-6.313-5.834-14.958-5.834-21C44.229,59.605,62.585,41.249,85.229,41.249 M85.229,33.249
                            c-27.019,0-49,21.981-49,49c0,3.485,0.521,15.622,7.213,25.491c12.637,18.635,36.736,32.824,37.756,33.419
                            c1.246,0.727,2.64,1.09,4.031,1.09c1.445,0,2.889-0.391,4.167-1.171c0.929-0.567,22.897-14.082,35.756-31.392
                            c5.769-7.765,9.077-17.766,9.077-27.438C134.229,55.23,112.247,33.249,85.229,33.249L85.229,33.249z"/>
                    </g>
                    <circle class="olhos" cx="66.396" cy="78.666" r="4.167"/>
                    <circle class="olhos" cx="103.396" cy="78.666" r="4.167"/>
                    <g id="boca-pronto">
                        <path d="M85.646,109.833c-6.167,0-10.417-5.25-10.417-10.833c0-1.657,1.343-3,3-3h14c1.657,0,3,1.343,3,3
                            C95.229,104.167,92.062,109.833,85.646,109.833z"/>
                        <path fill="#FE4242" d="M85.463,107.5c-3.449,0-5.828-1.676-5.828-3.459c0-0.529,0.751-0.958,1.68-0.958h7.83
                            c0.929,0,1.68,0.429,1.68,0.958C90.824,105.691,89.053,107.5,85.463,107.5z"/>
                    </g>
                    <circle id="boca-encher" cx="85.229" cy="104.333" r="2.666"/>
                    <g id="boca-sopro">
                        <path display="inline" d="M89.086,104.413c-1.794,0-3.2-0.697-3.954-1.857c-0.784,1.103-2.181,1.776-3.91,1.776
                            c-2.618,0-4.31-1.595-4.31-4.064c0-0.359,0.291-0.65,0.65-0.65s0.65,0.291,0.65,0.65c0,1.731,1.125,2.764,3.009,2.764
                            c1.522,0,3.301-0.712,3.301-2.718c0-0.359,0.291-0.65,0.65-0.65s0.65,0.291,0.65,0.65c0,2.087,1.758,2.799,3.263,2.799
                            c1.906,0,3.091-1.08,3.091-2.818c0-0.359,0.291-0.65,0.65-0.65s0.65,0.291,0.65,0.65
                            C93.478,102.758,91.713,104.413,89.086,104.413z"/>
                    </g>
                </g>
            </svg>
